<?xml version="1.0"?>
<svg xmlns="http://www.w3.org/2000/svg" viewBox="0 0 64 64">
    <path d="M 32 2.9941406 C 28.691 2.9941406 26 5.6851406 26 8.9941406 C 26 12.303141 28.691 14.994141 32 14.994141 C 35.309 14.994141 38 12.303141 38 8.9941406 C 38 5.6851406 35.309 2.9941406 32 2.9941406 z M 32 4.9941406 C 34.206 4.9941406 36 6.7881406 36 8.9941406 C 36 11.200141 34.206 12.994141 32 12.994141 C 29.794 12.994141 28 11.200141 28 8.9941406 C 28 6.7881406 29.794 4.9941406 32 4.9941406 z M 30.339844 15.994141 C 28.600844 15.994141 26.900687 16.591828 25.554688 17.673828 L 19.765625 22.302734 C 18.030625 23.688734 16.874672 25.659609 16.513672 27.849609 L 15.253906 35.373047 C 15.042906 36.682047 15.692047 37.958828 16.873047 38.548828 C 17.797047 39.010828 18.857203 39.013547 19.783203 38.560547 C 20.711203 38.107547 21.3595 37.269813 21.5625 36.257812 L 22.410156 32.052734 C 22.735156 30.438734 23.620297 28.982125 24.904297 27.953125 L 26 27.076172 L 26 36.832031 L 23.574219 44.107422 C 23.268219 45.020422 22.790156 45.846781 22.160156 46.550781 L 16.146484 53.082031 C 14.611484 54.668031 14.6295 57.232828 16.1875 58.798828 C 17.6965 60.312828 20.139437 60.401375 21.773438 58.984375 L 28.369141 52.914062 C 29.339141 52.036062 30.092422 50.978484 30.607422 49.771484 L 32.152344 46.148438 L 41.197266 58.464844 C 41.937266 59.459844 43.093672 59.994141 44.263672 59.994141 C 44.958672 59.994141 45.659203 59.806109 46.283203 59.412109 C 47.986203 58.338109 48.558844 56.116422 47.589844 54.357422 L 38.210938 37.167969 C 38.072938 36.898969 38 36.592203 38 36.283203 L 38 30.21875 C 38.377 30.33375 38.762391 30.422328 39.150391 30.486328 L 46.675781 31.748047 C 47.988781 31.960047 49.260609 31.307906 49.849609 30.128906 C 50.311609 29.205906 50.316281 28.143797 49.863281 27.216797 C 49.411281 26.289797 48.570594 25.6405 47.558594 25.4375 L 43.353516 24.591797 C 41.739516 24.266797 40.285859 23.380703 39.255859 22.095703 L 37.109375 19.419922 C 37.024375 19.299922 34.988906 16.477656 32.128906 16.097656 C 31.598906 16.027656 31.012844 15.994141 30.339844 15.994141 z M 30.339844 17.994141 C 30.923844 17.994141 31.422281 18.021078 31.863281 18.080078 C 33.854281 18.345078 35.464672 20.560953 35.513672 20.626953 L 37.693359 23.345703 C 39.014359 24.995703 40.884984 26.133781 42.958984 26.550781 L 47.164062 27.398438 C 47.560063 27.478437 47.888453 27.73075 48.064453 28.09375 C 48.240453 28.45675 48.239594 28.872375 48.058594 29.234375 C 47.866594 29.620375 47.433 29.840437 47 29.773438 L 39.478516 28.513672 C 38.972516 28.430672 38.477 28.290656 38 28.097656 L 38 26.755859 C 38 26.203859 37.553 25.755859 37 25.755859 C 36.447 25.755859 36 26.203859 36 26.755859 L 36 36.283203 C 36 36.908203 36.147406 37.528562 36.441406 38.101562 L 45.835938 55.318359 C 46.124938 55.842359 46.126625 56.450031 45.890625 56.957031 C 45.685625 57.374031 45.447266 57.650391 45.447266 57.650391 C 45.447266 57.650391 45.044828 57.851656 44.548828 57.972656 C 43.899828 58.078656 43.215688 57.826391 42.804688 57.275391 L 34.496094 45.964844 C 34.476094 45.928844 34.470312 45.888516 34.445312 45.853516 L 30.548828 40.419922 L 29.175781 38.455078 C 28.406781 37.300078 28 35.958266 28 34.572266 L 28 24.994141 C 28 24.609141 27.779594 24.25975 27.433594 24.09375 C 27.087594 23.92675 26.675 23.973844 26.375 24.214844 L 23.654297 26.394531 C 22.005297 27.716531 20.867219 29.584203 20.449219 31.658203 L 19.601562 35.863281 C 19.522562 36.259281 19.26925 36.588625 18.90625 36.765625 C 18.54425 36.942625 18.130578 36.940766 17.767578 36.759766 C 17.379578 36.565766 17.157563 36.128219 17.226562 35.699219 L 18.486328 28.177734 C 18.767328 26.473734 19.664672 24.943234 21.013672 23.865234 L 26.806641 19.232422 C 27.814641 18.421422 29.035844 17.994141 30.339844 17.994141 z M 27.314453 39.210938 C 27.387453 39.332937 27.445391 39.461078 27.525391 39.580078 L 30.810547 44.193359 L 28.769531 48.986328 C 28.369531 49.924328 27.783437 50.747547 27.023438 51.435547 L 20.443359 57.492188 C 19.620359 58.204188 18.374469 58.159719 17.605469 57.386719 C 16.811469 56.589719 16.802563 55.282078 17.601562 54.455078 L 23.642578 47.894531 C 24.464578 46.976531 25.080656 45.915234 25.472656 44.740234 L 27.314453 39.210938 z M 6 41.994141 C 5.447 41.994141 5 42.442141 5 42.994141 L 5 44.994141 C 5 45.546141 5.447 45.994141 6 45.994141 C 6.553 45.994141 7 45.546141 7 44.994141 L 7 42.994141 C 7 42.441141 6.553 41.994141 6 41.994141 z M 11 41.994141 C 10.447 41.994141 10 42.442141 10 42.994141 L 10 44.994141 C 10 45.546141 10.447 45.994141 11 45.994141 C 11.553 45.994141 12 45.546141 12 44.994141 L 12 42.994141 C 12 42.441141 11.553 41.994141 11 41.994141 z M 16 41.994141 C 15.447 41.994141 15 42.442141 15 42.994141 L 15 44.994141 C 15 45.546141 15.447 45.994141 16 45.994141 C 16.553 45.994141 17 45.546141 17 44.994141 L 17 42.994141 C 17 42.442141 16.553 41.994141 16 41.994141 z M 21 41.994141 C 20.447 41.994141 20 42.442141 20 42.994141 L 20 44.994141 C 20 45.546141 20.447 45.994141 21 45.994141 C 21.553 45.994141 22 45.546141 22 44.994141 L 22 42.994141 C 22 42.442141 21.553 41.994141 21 41.994141 z M 45 41.994141 C 44.447 41.994141 44 42.441141 44 42.994141 L 44 44.994141 C 44 45.546141 44.447 45.994141 45 45.994141 C 45.553 45.994141 46 45.546141 46 44.994141 L 46 42.994141 C 46 42.442141 45.553 41.994141 45 41.994141 z M 50 41.994141 C 49.447 41.994141 49 42.442141 49 42.994141 L 49 44.994141 C 49 45.546141 49.447 45.994141 50 45.994141 C 50.553 45.994141 51 45.546141 51 44.994141 L 51 42.994141 C 51 42.441141 50.553 41.994141 50 41.994141 z M 55 41.994141 C 54.447 41.994141 54 42.442141 54 42.994141 L 54 44.994141 C 54 45.546141 54.447 45.994141 55 45.994141 C 55.553 45.994141 56 45.546141 56 44.994141 L 56 42.994141 C 56 42.441141 55.553 41.994141 55 41.994141 z"/>
</svg>
